<?xml version="1.0" encoding="UTF-8"?>
<svg version="1.1" xmlns="http://www.w3.org/2000/svg" width="1255" height="1402">
<path d="M0 0 C414.15 0 828.3 0 1255 0 C1255 462.66 1255 925.32 1255 1402 C840.85 1402 426.7 1402 0 1402 C0 939.34 0 476.68 0 0 Z " fill="#3051B9" transform="translate(0,0)"/>
<path d="M0 0 C1.22953443 0.00075944 2.45906886 0.00151888 3.72586191 0.00230134 C4.41196094 -0.00000635 5.09805997 -0.00231404 5.80494988 -0.00469166 C8.12693061 -0.01002742 10.44863949 -0.00097822 12.7706064 0.00788796 C14.44287732 0.00701662 16.11514798 0.00526697 17.78741717 0.00270963 C22.40057048 -0.00178203 27.01363168 0.00626462 31.62677324 0.01626575 C36.59474637 0.02487189 41.56271397 0.02198211 46.53069246 0.0204612 C55.14398758 0.01941055 63.7572525 0.02570596 72.37054002 0.03693688 C84.82403117 0.05316454 97.27750765 0.05839708 109.73100822 0.06091286 C129.93410644 0.06529427 150.13718856 0.07861544 170.34027803 0.09751809 C189.97016002 0.11586537 209.60003764 0.1300275 229.22992647 0.13853371 C231.04373811 0.13932188 231.04373811 0.13932188 232.89419241 0.14012598 C238.96019997 0.14273598 245.02620757 0.14526341 251.09221518 0.14774978 C301.44639831 0.16849616 351.80056395 0.20373379 402.15473115 0.24839699 C401.48158513 5.1916006 400.50668225 7.51336577 397.15473115 11.24839699 C394.36584522 14.4598414 392.69754223 17.27635466 391.1351999 21.22105324 C389.45741606 24.6902557 387.13672389 27.71171398 384.87348115 30.81870949 C383.16623899 33.2321291 381.66026779 35.7055335 380.15473115 38.24839699 C379.22745602 39.67177731 378.28995984 41.08855266 377.34223115 42.49839699 C376.56492647 43.65855324 376.56492647 43.65855324 375.77191865 44.84214699 C374.69379365 46.44631366 373.61566865 48.05048033 372.53754365 49.65464699 C371.06847688 51.84728397 369.61072685 54.04707017 368.15473115 56.24839699 C367.59785615 57.07339699 367.04098115 57.89839699 366.46723115 58.74839699 C365.26441333 61.03947857 364.53875783 63.09930219 363.77973115 65.56089699 C361.44802725 72.859616 357.60676934 77.93615466 352.15473115 83.24839699 C351.49473115 84.23839699 350.83473115 85.22839699 350.15473115 86.24839699 C348.09590642 89.33663409 345.80593102 91.66517661 343.15473115 94.24839699 C342.59785615 95.01152199 342.04098115 95.77464699 341.46723115 96.56089699 C341.03410615 97.11777199 340.60098115 97.67464699 340.15473115 98.24839699 C339.49473115 98.24839699 338.83473115 98.24839699 338.15473115 98.24839699 C338.02348848 98.83395363 337.8922458 99.41951027 337.75702608 100.02281106 C336.80127004 103.55449813 335.09941519 106.74004897 333.46723115 109.99839699 C332.93138399 111.07202492 332.93138399 111.07202492 332.38471162 112.16734231 C330.08810424 116.67029291 327.63635539 120.77874568 324.38129365 124.67027199 C323.01466034 126.4286155 322.09207133 128.23355361 321.15473115 130.24839699 C320.49473115 130.24839699 319.83473115 130.24839699 319.15473115 130.24839699 C319.05160615 130.99089699 318.94848115 131.73339699 318.84223115 132.49839699 C318.10203505 135.45918142 316.99753519 136.86810845 315.15473115 139.24839699 C314.44958269 141.39573626 314.44958269 141.39573626 314.15473115 143.24839699 C313.49473115 143.24839699 312.83473115 143.24839699 312.15473115 143.24839699 C311.75061006 144.07984231 311.75061006 144.07984231 311.3383249 144.92808449 C310.04500666 147.46350046 308.65729793 149.91832132 307.21723115 152.37339699 C306.71320772 153.24222512 306.20918428 154.11105324 305.6898874 155.00620949 C304.15473115 157.24839699 304.15473115 157.24839699 301.15473115 159.24839699 C300.11027702 160.89069117 300.11027702 160.89069117 299.27973115 162.81089699 C293.58499663 174.73760515 286.15342242 185.06936127 278.0726999 195.48667824 C276.28559816 198.05995917 275.26476499 200.34412744 274.15473115 203.24839699 C272.8930124 205.09995949 272.8930124 205.09995949 271.46723115 206.87339699 C268.27788663 210.97509679 265.56517005 215.29697158 262.86566865 219.73277199 C261.15473115 222.24839699 261.15473115 222.24839699 259.03754365 224.36167824 C256.4567999 226.94777624 255.56430043 229.90066997 254.15473115 233.24839699 C251.96723115 236.18589699 251.96723115 236.18589699 250.15473115 238.24839699 C247.19297992 237.63562088 245.77414333 236.99467177 243.15473115 235.24839699 C242.4256903 233.60805506 241.76817873 231.93537782 241.15473115 230.24839699 C238.97151247 225.48501078 236.49607303 221.48388033 232.68598115 217.84605324 C231.04245871 216.13125559 229.88604211 214.40190287 228.65473115 212.37339699 C228.22547334 211.66699074 227.79621553 210.96058449 227.3539499 210.23277199 C226.76033662 209.25050637 226.76033662 209.25050637 226.15473115 208.24839699 C225.59785615 207.38214699 225.04098115 206.51589699 224.46723115 205.62339699 C222.97077807 202.9155295 222.04842992 200.20447753 221.15473115 197.24839699 C220.49473115 197.24839699 219.83473115 197.24839699 219.15473115 197.24839699 C217.80063795 195.26239363 216.47015491 193.26022157 215.15473115 191.24839699 C214.45348115 190.56777199 213.75223115 189.88714699 213.02973115 189.18589699 C211.15473115 187.24839699 211.15473115 187.24839699 210.15473115 184.62339699 C209.41805224 182.10560626 209.41805224 182.10560626 207.28754365 181.44761574 C204.31103846 179.77401301 203.53686596 177.71200273 202.02973115 174.68589699 C200.3218086 170.75758439 200.3218086 170.75758439 197.15473115 168.24839699 C196.82473115 167.25839699 196.49473115 166.26839699 196.15473115 165.24839699 C195.16473115 164.58839699 194.17473115 163.92839699 193.15473115 163.24839699 C192.15743259 161.47899632 191.16228456 159.70800472 190.2055124 157.91636574 C189.17452458 156.04938081 189.17452458 156.04938081 186.90473115 154.62339699 C186.32723115 154.16964699 185.74973115 153.71589699 185.15473115 153.24839699 C184.90473115 150.56089699 184.90473115 150.56089699 185.15473115 148.24839699 C184.49473115 148.24839699 183.83473115 148.24839699 183.15473115 148.24839699 C182.07947921 145.59610887 181.06016964 142.96471245 180.15473115 140.24839699 C179.49473115 140.24839699 178.83473115 140.24839699 178.15473115 140.24839699 C176.78754365 138.49058449 176.78754365 138.49058449 175.27973115 136.12339699 C173.53719882 133.40334651 171.79359267 130.74681576 169.90473115 128.12339699 C168.15473115 125.24839699 168.15473115 125.24839699 167.15473115 121.56089699 C166.42716688 118.32507814 166.42716688 118.32507814 164.67988908 116.56628621 C160.79155062 114.53694806 157.07655618 114.82644799 152.7522043 114.84966958 C151.78915179 114.84302275 150.82609929 114.83637592 149.83386338 114.82952768 C146.59859026 114.8108372 143.36368501 114.81350707 140.12836397 114.81602395 C137.81252712 114.8070105 135.49669507 114.79668431 133.18086946 114.78514016 C126.88584004 114.75749517 120.59090096 114.74827544 114.29581869 114.74228609 C107.72008671 114.73292194 101.14442273 114.70672017 94.56873262 114.68228066 C83.52921531 114.64303208 72.48970871 114.61519852 61.45014131 114.59483254 C50.0793465 114.573827 38.70859519 114.54655564 27.33783662 114.51084816 C26.63694356 114.50864934 25.93605049 114.50645051 25.21391824 114.50418506 C21.6977437 114.49311551 18.18156957 114.48192268 14.66539562 114.47066855 C-14.50478488 114.37746381 -43.67499696 114.30609669 -72.84526885 114.24839699 C-73.9555634 110.52097956 -73.68458891 108.74310511 -71.84526885 105.24839699 C-70.36026885 104.25839699 -70.36026885 104.25839699 -68.84526885 103.24839699 C-67.72441573 100.90531609 -67.72441573 100.90531609 -66.84526885 98.24839699 C-65.17860218 93.47061921 -65.17860218 93.47061921 -61.84526885 91.24839699 C-60.82997343 88.92167834 -59.83038687 86.58805229 -58.84526885 84.24839699 C-58.37991728 83.79077981 -57.91456572 83.33316262 -57.4351126 82.86167824 C-55.36620926 80.7622751 -54.25825315 78.48839312 -52.90776885 75.87339699 C-50.84028422 71.97954877 -48.70508737 68.6188974 -45.84526885 65.24839699 C-45.1364099 63.93700795 -44.45070432 62.61062682 -43.84526885 61.24839699 C-43.18526885 61.24839699 -42.52526885 61.24839699 -41.84526885 61.24839699 C-41.61839385 60.54714699 -41.39151885 59.84589699 -41.15776885 59.12339699 C-39.56056408 55.62475798 -37.33738756 53.16599939 -34.84526885 50.24839699 C-32.69316179 46.84136736 -30.82752522 43.32236061 -28.97026885 39.74839699 C-26.69045114 35.52170525 -24.29012898 32.60260291 -20.84526885 29.24839699 C-19.73087889 27.17483569 -18.75771995 25.08655623 -17.83745635 22.92027199 C-16.84526885 21.24839699 -16.84526885 21.24839699 -13.84526885 20.24839699 C-12.51679442 18.2015592 -12.51679442 18.2015592 -11.40776885 15.68589699 C-10.9798001 14.78742043 -10.55183135 13.88894387 -10.11089385 12.96324074 C-9.6932376 12.06734231 -9.27558135 11.17144387 -8.84526885 10.24839699 C-4.08686852 0.35679084 -4.08686852 0.35679084 0 0 Z " fill="#F9FBFE" transform="translate(463.84526884555817,465.7516030073166)"/>
<path d="M0 0 C3.68958188 1.45867191 4.17221854 3.4442139 5.7265625 6.95703125 C6.71184411 9.26828561 6.71184411 9.26828561 8.625 11.9375 C10.439381 14.68656211 11.71013867 17.26443552 13.0625 20.25 C15.26617099 24.82737831 17.11057398 25.87353538 21.6875 28.0625 C22.74048676 30.08002264 23.4126468 32.03944765 24.046875 34.22265625 C24.61291692 36.27809321 24.61291692 36.27809321 26.6875 38.0625 C26.6875 39.3825 26.6875 40.7025 26.6875 42.0625 C27.3475 42.0625 28.0075 42.0625 28.6875 42.0625 C32.16885366 46.23173559 35.11161339 50.67077403 37.1875 55.6875 C38.90559478 59.55321325 41.13497751 61.99119145 43.98046875 65.0703125 C45.5970765 66.95697143 46.76512734 68.75570996 47.9375 70.9375 C49.48443037 74.25568839 49.48443037 74.25568839 52.6875 76.0625 C53.6796875 78.26953125 53.6796875 78.26953125 54.5625 80.875 C56.25772036 85.36348119 58.09676658 87.81374119 61.6875 91.0625 C64.44541593 94.37199912 67.11385351 97.59253086 68.6875 101.625 C69.67789155 104.03907941 70.59266309 105.21202632 72.3125 107.125 C77.18896034 112.57941119 82.36104502 119.08313506 84.6875 126.0625 C201.0125 126.5575 201.0125 126.5575 319.6875 127.0625 C319.6875 129.0425 319.6875 131.0225 319.6875 133.0625 C319.0275 133.7225 318.3675 134.3825 317.6875 135.0625 C317.31625 136.17625 316.945 137.29 316.5625 138.4375 C314.75459417 143.57082848 311.66540326 147.72667308 308.52734375 152.1328125 C306.6767566 155.07960732 305.76727144 157.77450746 304.6875 161.0625 C303.20703125 163.30078125 303.20703125 163.30078125 301.5 165.375 C300.87867188 166.14585937 300.25734375 166.91671875 299.6171875 167.7109375 C298.98039062 168.48695313 298.34359375 169.26296875 297.6875 170.0625 C291.92214112 177.17560511 286.47047338 184.45867951 283 193 C281.6875 196.0625 281.6875 196.0625 280.19140625 197.51171875 C278.47238586 199.284319 278.01538944 200.59149238 277.3125 202.9375 C275.90709113 206.98359817 273.84641344 209.14050507 270.6875 212.0625 C270.130625 212.990625 269.57375 213.91875 269 214.875 C268.566875 215.596875 268.13375 216.31875 267.6875 217.0625 C267.0275 217.0625 266.3675 217.0625 265.6875 217.0625 C265.31625 217.866875 265.31625 217.866875 264.9375 218.6875 C263.6875 221.0625 263.6875 221.0625 261.6875 224 C259.6378557 226.91918596 259.6378557 226.91918596 258.5625 229.875 C257.6875 232.0625 257.6875 232.0625 255.6875 233.0625 C254.64960419 234.70583504 253.65182076 236.37493867 252.6875 238.0625 C252.0275 239.0525 251.3675 240.0425 250.6875 241.0625 C247.85505521 241.43509549 247.85505521 241.43509549 244.14760399 241.43164349 C243.46488171 241.43510502 242.78215942 241.43856655 242.07874858 241.44213298 C239.76813457 241.45013687 237.45813523 241.43656355 235.14755249 241.42326355 C233.48353033 241.42457056 231.81950877 241.42719505 230.15549052 241.43103105 C225.5650967 241.43776854 220.97491116 241.42569875 216.3845439 241.41069686 C211.44111079 241.39778756 206.49769021 241.40212233 201.554245 241.40440369 C192.98349582 241.40597967 184.41281496 241.39653662 175.84208298 241.37969017 C163.45012781 241.3553486 151.05820581 241.34749987 138.66622932 241.3437262 C118.56294924 241.33715409 98.4597056 241.31717237 78.35644531 241.28881836 C58.82356957 241.26129741 39.29070371 241.24005422 19.7578125 241.22729492 C18.55457873 241.22650675 17.35134496 241.22571858 16.11164956 241.22490653 C10.07561017 241.22099152 4.03957072 241.21720037 -1.99646878 241.21347082 C-52.10183771 241.18235128 -102.20716708 241.12949487 -152.3125 241.0625 C-153.04864485 238.52091959 -153.35740047 237.25706868 -152.75 234.625 C-150.87439108 231.28152323 -148.24190002 229.50366668 -145.3125 227.0625 C-144.64101222 225.39776988 -143.97496535 223.73084106 -143.3125 222.0625 C-142.04043374 220.24715543 -140.70347056 218.47592855 -139.3125 216.75 C-138.61125 215.86699219 -137.91 214.98398437 -137.1875 214.07421875 C-136.56875 213.41035156 -135.95 212.74648438 -135.3125 212.0625 C-134.6525 212.0625 -133.9925 212.0625 -133.3125 212.0625 C-133.19132812 211.35738281 -133.07015625 210.65226563 -132.9453125 209.92578125 C-131.11416274 201.64039377 -127.65444448 194.84632279 -121.8203125 188.734375 C-119.95473904 186.66581168 -119.10274091 184.72058305 -118.3125 182.0625 C-117.4375 179.375 -117.4375 179.375 -116.3125 177.0625 C-115.384375 176.629375 -115.384375 176.629375 -114.4375 176.1875 C-111.53004807 174.64826074 -110.75334321 172.58233904 -109.25390625 169.73046875 C-108.18866959 167.84309923 -106.83703045 166.58703045 -105.3125 165.0625 C-104.63117549 163.40177151 -103.96507873 161.734733 -103.3125 160.0625 C-101.8125 157.75 -101.8125 157.75 -100.3125 156.0625 C-99.6525 156.0625 -98.9925 156.0625 -98.3125 156.0625 C-98.085625 154.86625 -97.85875 153.67 -97.625 152.4375 C-96.49023966 147.84172061 -94.47732699 145.5360906 -91.3125 142.0625 C-90.29383771 140.40717377 -89.29439187 138.73989862 -88.3125 137.0625 C-87.46542802 135.890672 -86.61071702 134.72434251 -85.75 133.5625 C-84.25716811 131.51316864 -83.27255999 129.95599331 -82.375 127.5625 C-81.30883456 125.05387544 -80.24678024 123.74878091 -78.4375 121.75 C-75.74620425 118.74016924 -74.06897798 115.81392765 -72.375 112.171875 C-70.39390333 108.23881544 -67.81166069 104.67988353 -65.3125 101.0625 C-63.31834767 98.15673518 -61.48999735 95.44285147 -60 92.25 C-58.48106263 89.38089609 -56.90076763 87.2003139 -54.875 84.6875 C-52.17004267 81.30489157 -50.21026548 78.08447074 -48.4140625 74.1640625 C-47.06285244 71.58622204 -45.4092657 69.34528578 -43.6875 67 C-40.82282638 63.03116953 -39.24927182 59.85044485 -38.3125 55.0625 C-37.6525 55.0625 -36.9925 55.0625 -36.3125 55.0625 C-36.10625 54.381875 -35.9 53.70125 -35.6875 53 C-34.42870838 50.31076337 -33.33492468 48.84195815 -31.375 46.6875 C-28.42571908 43.38288403 -26.98952056 40.18517554 -25.3125 36.0625 C-23.79872796 33.4394294 -22.22080538 30.86585489 -20.6171875 28.296875 C-19.18310676 26.01646796 -19.18310676 26.01646796 -18.3125 23.0625 C-17.3225 23.0625 -16.3325 23.0625 -15.3125 23.0625 C-14.9103125 21.9178125 -14.9103125 21.9178125 -14.5 20.75 C-13.3125 18.0625 -13.3125 18.0625 -11.8984375 16.66796875 C-7.79978051 12.51883569 -5.33591398 6.45827063 -3.3125 1.0625 C-2.3125 0.0625 -2.3125 0.0625 0 0 Z " fill="#F9FBFE" transform="translate(540.3125,702.9375)"/>
<path d="M0 0 C0.75 1.75 0.75 1.75 1 4 C-0.28817344 5.37701298 -1.62804426 6.70644173 -3 8 C-4.25436187 10.63222962 -4.25436187 10.63222962 -5 13 C-5.66 13 -6.32 13 -7 13 C-7.0825 13.70125 -7.165 14.4025 -7.25 15.125 C-8.17341927 18.66477388 -9.93551432 20.99711174 -12 24 C-12.495 25.2684375 -12.495 25.2684375 -13 26.5625 C-14.22565576 29.55003591 -15.82344828 31.62557994 -18 34 C-18.99 34.33 -19.98 34.66 -21 35 C-21.1546875 36.60875 -21.1546875 36.60875 -21.3125 38.25 C-21.97202199 41.84739269 -22.45776191 43.45776191 -25 46 C-25.66 46 -26.32 46 -27 46 C-27.268125 46.969375 -27.53625 47.93875 -27.8125 48.9375 C-28.4003125 50.4534375 -28.4003125 50.4534375 -29 52 C-29.99 52.33 -30.98 52.66 -32 53 C-32.61067144 54.85744207 -32.61067144 54.85744207 -33 57 C-34.34051602 60.2555389 -34.92607673 60.95071782 -38 63 C-39.20450304 65.55183404 -39.20450304 65.55183404 -40 68 C-40.66 68 -41.32 68 -42 68 C-42.37125 68.8353125 -42.37125 68.8353125 -42.75 69.6875 C-44 72 -44 72 -46 74.375 C-48.14030574 77.18415128 -49.05670155 79.61984724 -50 83 C-50.66 83 -51.32 83 -52 83 C-52.0825 83.515625 -52.165 84.03125 -52.25 84.5625 C-53.1130998 87.36757434 -54.5191877 89.67071421 -56.01171875 92.18359375 C-57.37142252 94.68265404 -58.20299089 97.27688553 -59 100 C-59.66 100 -60.32 100 -61 100 C-61.2475 100.78375 -61.495 101.5675 -61.75 102.375 C-63.15389099 105.32317108 -64.00675737 105.9024777 -67 107 C-67 108.32 -67 109.64 -67 111 C-67.66 111 -68.32 111 -69 111 C-69.12375 111.598125 -69.2475 112.19625 -69.375 112.8125 C-70 115 -70 115 -72 118 C-73.485 118.495 -73.485 118.495 -75 119 C-76.485 122.465 -76.485 122.465 -78 126 C54.66 126 187.32 126 324 126 C324 126.33 324 126.66 324 127 C191.01 127 58.02 127 -79 127 C-80.09521965 122.61912141 -80.12998234 121.79692505 -78 118 C-76 116.33333333 -74 114.66666667 -72 113 C-71.32851222 111.33526988 -70.66246535 109.66834106 -70 108 C-68.72793374 106.18465543 -67.39097056 104.41342855 -66 102.6875 C-64.948125 101.36298828 -64.948125 101.36298828 -63.875 100.01171875 C-63.25625 99.34785156 -62.6375 98.68398438 -62 98 C-61.34 98 -60.68 98 -60 98 C-59.87882812 97.29488281 -59.75765625 96.58976563 -59.6328125 95.86328125 C-57.80166274 87.57789377 -54.34194448 80.78382279 -48.5078125 74.671875 C-46.64223904 72.60331168 -45.79024091 70.65808305 -45 68 C-44.125 65.3125 -44.125 65.3125 -43 63 C-42.38125 62.71125 -41.7625 62.4225 -41.125 62.125 C-38.21754807 60.58576074 -37.44084321 58.51983904 -35.94140625 55.66796875 C-34.87616959 53.78059923 -33.52453045 52.52453045 -32 51 C-31.31867549 49.33927151 -30.65257873 47.672233 -30 46 C-28.5 43.6875 -28.5 43.6875 -27 42 C-26.34 42 -25.68 42 -25 42 C-24.773125 40.80375 -24.54625 39.6075 -24.3125 38.375 C-23.17773966 33.77922061 -21.16482699 31.4735906 -18 28 C-16.98133771 26.34467377 -15.98189187 24.67739862 -15 23 C-14.15292802 21.828172 -13.29821702 20.66184251 -12.4375 19.5 C-10.94466811 17.45066864 -9.96005999 15.89349331 -9.0625 13.5 C-7.72249277 10.34704181 -5.74742115 8.2465834 -3.4375 5.74609375 C-1.93959302 3.92662522 -0.97346782 2.13882113 0 0 Z " fill="#99AAE0" transform="translate(467,817)"/>
<path d="M0 0 C0.66 0 1.32 0 2 0 C2 0.66 2 1.32 2 2 C3.23082023 1.99907821 4.46164045 1.99815641 5.72975826 1.99720669 C34.91666948 1.97557042 64.10357995 1.95907031 93.29049727 1.94893467 C96.87929312 1.94768389 100.46808894 1.94638958 104.05688477 1.94506836 C104.77137939 1.94480605 105.48587401 1.94454374 106.22201998 1.94427348 C117.80612918 1.93991669 129.39023345 1.9320291 140.97433972 1.9228472 C152.85190458 1.9135109 164.72946684 1.90794444 176.60703522 1.90591151 C183.28217621 1.90465994 189.95730734 1.90151524 196.63244438 1.89426994 C202.9072829 1.88751391 209.18210551 1.88538218 215.45694733 1.88689232 C217.76732278 1.8866158 220.07769874 1.88460822 222.38807106 1.88079453 C225.52752774 1.87586379 228.66692331 1.87699941 231.80638123 1.87974548 C233.19691693 1.87537622 233.19691693 1.87537622 234.61554426 1.87091869 C240.88587879 1.88587879 240.88587879 1.88587879 242 3 C242.54244677 6.17718825 242.47985734 8.24404013 240.73046875 11 C239.65475264 12.38194186 238.56331553 13.75178024 237.45703125 15.109375 C235.78829479 17.27470595 234.94709713 19.45012311 234 22 C233.52949219 22.46148438 233.05898438 22.92296875 232.57421875 23.3984375 C230.88463942 25.11736436 230.02740101 26.64211536 229 28.8125 C228.6596875 29.51503906 228.319375 30.21757813 227.96875 30.94140625 C227.13779831 32.70717859 226.31780067 34.47809855 225.5 36.25 C223.95490936 39.08266617 222.26642578 40.73357422 220 43 C219.04959616 44.60585477 218.10383227 46.21516861 217.20703125 47.8515625 C215.66684715 50.59299052 214.03351166 53.26602573 212.375 55.9375 C211.78460937 56.89527344 211.19421875 57.85304688 210.5859375 58.83984375 C210.06257812 59.55269531 209.53921875 60.26554688 209 61 C208.34 61 207.68 61 207 61 C206.814375 61.86625 206.814375 61.86625 206.625 62.75 C205.99351176 65.02335767 205.11141809 66.9253529 204 69 C203.01 69 202.02 69 201 69 C203.98507464 60.31614651 210.02956972 52.83356729 215.796875 45.8125 C219.32594674 41.46902709 221.81669744 37.50282757 223.90234375 32.3203125 C225.18503682 29.60885456 226.79105951 27.35612647 228.5625 24.9375 C233.16657837 18.58229781 234.82826101 12.60108645 237 5 C159.45 5 81.9 5 2 5 C1.34 3.35 0.68 1.7 0 0 Z " fill="#5170CC" transform="translate(623,825)"/>
<path d="M0 0 C0.68725288 -0.00346153 1.37450575 -0.00692307 2.08258447 -0.01048949 C4.40258895 -0.01847714 6.72197807 -0.00493334 9.04195118 0.00837994 C10.71508599 0.0070726 12.3882202 0.00444749 14.06135112 0.00061244 C18.67228853 -0.00611854 23.2830182 0.0059359 27.89392912 0.02094662 C32.86120305 0.0338652 37.82846463 0.02952049 42.79575062 0.0272398 C51.40631558 0.02566441 60.0168125 0.0351013 68.62736034 0.05195332 C81.07685767 0.07630286 93.52632199 0.08414444 105.97584055 0.08791729 C126.17284828 0.09448813 146.36981972 0.11446646 166.56680775 0.14282513 C186.18985277 0.17034932 205.81288795 0.19159092 225.43594837 0.20434856 C227.24936593 0.20553082 227.24936593 0.20553082 229.09941819 0.20673696 C235.16415508 0.21065199 241.22889204 0.21444313 247.29362905 0.21817267 C297.63105159 0.24928829 347.96843474 0.3021413 398.30582142 0.36914349 C398.30582142 0.69914349 398.30582142 1.02914349 398.30582142 1.36914349 C397.02582213 1.36889996 397.02582213 1.36889996 395.71996427 1.36865151 C345.18274753 1.35979583 294.64562661 1.38206183 244.10844554 1.44493378 C238.04500599 1.45245013 231.98156616 1.45970556 225.91812611 1.46679974 C224.71096698 1.46821649 223.50380785 1.46963324 222.26006815 1.47109292 C202.69504685 1.49343218 183.13007826 1.49461761 163.56504777 1.48803212 C143.50048004 1.48174759 123.43602347 1.4980873 103.37148929 1.53557956 C90.98322112 1.55801047 78.59520581 1.56263897 66.20692918 1.54474013 C57.7202794 1.53416623 49.23383812 1.54550024 40.74723127 1.57430501 C35.84542458 1.59028789 30.94411346 1.59637872 26.04230976 1.57653522 C21.55880136 1.55859753 17.07623306 1.56803041 12.59280822 1.59968232 C10.96691513 1.60624908 9.34094343 1.60257659 7.71510342 1.58788957 C5.5113977 1.56944753 3.31096871 1.5876068 1.10743046 1.61523914 C-0.11830677 1.61599858 -1.34404399 1.61675802 -2.60692477 1.61754048 C-5.95849445 2.1044704 -5.95849445 2.1044704 -8.03090024 5.23584259 C-9.57442293 8.14354656 -11.01289213 11.03532935 -12.31917858 14.05664349 C-13.6299409 17.07473635 -14.86164986 19.6203504 -16.69417858 22.36914349 C-18.81917858 23.05664349 -18.81917858 23.05664349 -20.69417858 23.36914349 C-19.69417858 21.36914349 -19.69417858 21.36914349 -18.69417858 19.36914349 C-18.28167858 18.50289349 -17.86917858 17.63664349 -17.44417858 16.74414349 C-8.75782149 -0.00811661 -8.75782149 -0.00811661 0 0 Z " fill="#7489D2" transform="translate(466.6941785812378,464.63085651397705)"/>
<path d="M0 0 C133.65 0 267.3 0 405 0 C403.78451814 7.29289117 401.15224233 10.03176633 396 15 C396.32484375 14.09507812 396.32484375 14.09507812 396.65625 13.171875 C396.9346875 12.37265625 397.213125 11.5734375 397.5 10.75 C397.7784375 9.96109375 398.056875 9.1721875 398.34375 8.359375 C399.17864861 5.76587262 399.17864861 5.76587262 399 2 C267 2 135 2 -1 2 C-0.67 1.34 -0.34 0.68 0 0 Z " fill="#B8C3E8" transform="translate(461,466)"/>
<path d="M0 0 C1 2 1 2 0.1875 5 C-1 8 -1 8 -3 10 C-5.85053021 10.24954766 -5.85053021 10.24954766 -9.58395481 10.24888897 C-10.27144262 10.25149625 -10.95893043 10.25410354 -11.6672512 10.25678983 C-13.99396173 10.26313614 -16.3204071 10.25509833 -18.64710999 10.24723816 C-20.32279337 10.24882492 -21.99847613 10.25128719 -23.67415708 10.25455457 C-28.29677762 10.26099532 -32.91931117 10.25487897 -37.54192603 10.24679029 C-42.52014622 10.240234 -47.49835635 10.24515722 -52.47657776 10.24867249 C-62.23572497 10.25372391 -71.9948384 10.24806114 -81.75398142 10.23882218 C-93.10674533 10.22845919 -104.45950186 10.22850781 -115.81226962 10.22899476 C-136.06080734 10.22949584 -156.3093293 10.22032142 -176.55786133 10.20581055 C-196.22941373 10.19172035 -215.90095225 10.18463982 -235.57250977 10.18530273 C-237.3899538 10.18536267 -237.3899538 10.18536267 -239.24411387 10.18542381 C-241.05834131 10.18548435 -241.05834131 10.18548435 -242.9092198 10.1855461 C-265.27134384 10.1862351 -287.63346194 10.18035097 -309.99558406 10.17139288 C-317.91900816 10.16837037 -325.84243118 10.1673126 -333.76585579 10.16686058 C-343.41406202 10.16618001 -353.06225826 10.16173717 -362.71046025 10.15252777 C-367.63807492 10.14789559 -372.56567677 10.14486948 -377.49329376 10.14612198 C-381.99659024 10.14721116 -386.4998583 10.14373477 -391.00314885 10.13647345 C-392.63970337 10.13464927 -394.2762608 10.13454026 -395.91281546 10.13624074 C-398.12254023 10.13828398 -400.33216989 10.13428099 -402.54188633 10.12863445 C-403.7737541 10.12793003 -405.00562186 10.1272256 -406.27481896 10.12649983 C-409 10 -409 10 -410 9 C-410.04063832 7.33382885 -410.042721 5.66611905 -410 4 C-409.01 4 -408.02 4 -407 4 C-407.33 5.32 -407.66 6.64 -408 8 C-275.01 8.33 -142.02 8.66 -5 9 C-4.34 7.68 -3.68 6.36 -3 5 C-2.01120795 3.32665961 -1.01351664 1.65848177 0 0 Z " fill="#637CCF" transform="translate(796,935)"/>
<path d="M0 0 C1.24546405 2.49092811 0.7767578 3.41080733 0 6 C50.09113962 6.02287745 100.18227871 6.04050387 150.27342252 6.05106533 C156.18407205 6.05231607 162.09472157 6.05361039 168.00537109 6.05493164 C169.77046363 6.05532511 169.77046363 6.05532511 171.5712146 6.05572652 C190.63694932 6.06008054 209.70268104 6.06796662 228.76841398 6.0771528 C248.32443736 6.08649678 267.88045917 6.09205719 287.43648469 6.09408849 C299.5083618 6.09546217 311.58023041 6.0998044 323.6521049 6.10791647 C331.92470071 6.11319309 340.19729211 6.1148022 348.46988948 6.11350138 C353.2462171 6.11285944 358.02252984 6.11385932 362.79885483 6.11920547 C367.16987562 6.12406235 371.54087149 6.12432352 375.91189341 6.12089889 C377.49476274 6.12047546 379.0776336 6.12175189 380.66049989 6.12488318 C382.8098535 6.12888853 384.95911681 6.12673755 387.10846901 6.12304783 C388.30306917 6.12342755 389.49766933 6.12380727 390.72846949 6.1241985 C393.90303327 6.00368119 396.88308259 5.59724456 400 5 C400.33 4.01 400.66 3.02 401 2 C401.66 2 402.32 2 403 2 C401.84826645 4.46800047 400.95216435 6.04783565 399 8 C396.17396724 8.24839699 396.17396724 8.24839699 392.47572136 8.24609566 C391.79468745 8.24840335 391.11365354 8.25071103 390.41198224 8.25308865 C388.107231 8.25842425 385.80275367 8.24937535 383.49801636 8.24050903 C381.83811983 8.24138037 380.17822357 8.24313003 378.51832879 8.24568737 C373.93937994 8.25017896 369.3605239 8.24213247 364.78158689 8.23213124 C359.85042391 8.22352501 354.91926651 8.22641489 349.98809814 8.22793579 C341.4386457 8.22898644 332.88922369 8.22269109 324.3397789 8.21146011 C311.97859501 8.19523238 299.6174259 8.18999991 287.25623251 8.18748413 C267.20287713 8.18310273 247.14953797 8.1697816 227.09619141 8.15087891 C207.61181723 8.13253159 188.12744747 8.11836947 168.64306641 8.10986328 C166.84269624 8.10907511 166.84269624 8.10907511 165.00595497 8.10827102 C158.98489962 8.10566102 152.96384424 8.10313358 146.94278884 8.10064721 C96.961848 8.07990087 46.98092479 8.04466327 -3 8 C-2.45276317 4.62537285 -1.9451 2.91765 0 0 Z " fill="#D2DBF2" transform="translate(392,935)"/>
<path d="M0 0 C0.75 1.625 0.75 1.625 1 4 C-0.26220093 6.04563599 -1.60287726 8.04402816 -3 10 C-3.31324219 10.78890625 -3.62648438 11.5778125 -3.94921875 12.390625 C-5.046087 15.11444652 -6.37864389 17.36830566 -8 19.8125 C-8.515625 20.60269531 -9.03125 21.39289062 -9.5625 22.20703125 C-10.036875 22.79871094 -10.51125 23.39039063 -11 24 C-11.66 24 -12.32 24 -13 24 C-13 25.65 -13 27.3 -13 29 C-13.639375 29.2475 -14.27875 29.495 -14.9375 29.75 C-17.17876824 30.79734983 -17.17876824 30.79734983 -17.625 33 C-17.74875 33.66 -17.8725 34.32 -18 35 C-18.66 35.66 -19.32 36.32 -20 37 C-20.99 39.31 -21.98 41.62 -23 44 C54.22 44 131.44 44 211 44 C211 44.33 211 44.66 211 45 C133.45 45 55.9 45 -24 45 C-25.07402651 40.70389395 -24.97915731 39.76039889 -23 36 C-22.01 35.34 -21.02 34.68 -20 34 C-18.87914688 31.6569191 -18.87914688 31.6569191 -18 29 C-16.33333333 24.22222222 -16.33333333 24.22222222 -13 22 C-11.98470459 19.67328135 -10.98511802 17.3396553 -10 15 C-9.53851563 14.54753906 -9.07703125 14.09507812 -8.6015625 13.62890625 C-6.4678389 11.45875323 -5.28701125 9.06420735 -3.875 6.375 C-1.08333333 1.08333333 -1.08333333 1.08333333 0 0 Z " fill="#A3B0E0" transform="translate(415,535)"/>
<path d="M0 0 C4.70880118 4.18560105 5.93903646 6.87807293 9 13 C125.325 13.495 125.325 13.495 244 14 C244 15.98 244 17.96 244 20 C243.67 20 243.34 20 243 20 C243 18.35 243 16.7 243 15 C241.51911833 15.0077306 241.51911833 15.0077306 240.00831985 15.01561737 C215.81130397 15.14188908 191.61428262 15.26706904 167.4172554 15.39115143 C155.71501657 15.45118493 144.01277966 15.51155317 132.31054688 15.57275391 C122.09227177 15.62619289 111.87399343 15.67895856 101.65571094 15.73096704 C96.26216296 15.758441 90.86861697 15.78621709 85.47507477 15.81480408 C84.44500864 15.82021351 83.41494251 15.82562295 82.35366225 15.83119631 C80.30628197 15.84203288 78.25890291 15.85310419 76.2115252 15.86441755 C71.30812071 15.89077515 66.40483462 15.91139871 61.50136185 15.91847992 C53.30326863 15.93368472 45.11380871 15.9720402 36.91889405 16.21806192 C33.55023838 16.31654501 30.18127853 16.38668791 26.81187201 16.45390987 C25.25853601 16.49318441 23.70548436 16.54681794 22.15319681 16.61608982 C10.41136769 17.13754988 10.41136769 17.13754988 6.78879547 14.2177887 C5.29207892 12.20840658 4.16499253 10.20943794 3 8 C2.34 7.67 1.68 7.34 1 7 C0.59270772 4.67843403 0.25561323 2.3431213 0 0 Z " fill="#C0CCED" transform="translate(616,816)"/>
<path d="M0 0 C1 2 1 2 1 5 C2.80977719 5.00219984 2.80977719 5.00219984 4.65611553 5.00444412 C33.28997399 5.04013838 61.92374326 5.09636834 90.55750687 5.17792095 C94.08106211 5.18793853 97.60461781 5.19778264 101.12817383 5.20751953 C101.82965675 5.2094609 102.53113967 5.21140228 103.25387964 5.21340248 C114.61541733 5.24443207 125.97693482 5.2614058 137.3385069 5.27319422 C148.99466837 5.28560084 160.65071767 5.31338894 172.30681306 5.35461307 C178.85468094 5.37728209 185.40239724 5.39290742 191.95030785 5.39188385 C198.11038689 5.39114046 204.27013017 5.40896215 210.43012238 5.44116783 C212.69364962 5.4497031 214.95721437 5.45139233 217.22075081 5.44580269 C220.30663588 5.43919599 223.39144223 5.45700414 226.47721863 5.48101807 C227.37702727 5.47325765 228.27683591 5.46549723 229.20391148 5.45750165 C233.43993204 5.51602804 235.46437933 5.64828634 239.09517384 8.03243637 C239.72376647 8.68173237 240.3523591 9.33102837 241 10 C240.67 10.66 240.34 11.32 240 12 C239.01 11.67 238.02 11.34 237 11 C236.67 10.34 236.34 9.68 236 9 C222.92024259 8.05817499 209.89337454 7.83175914 196.78295898 7.79467773 C194.60313746 7.78507527 192.4233177 7.7750639 190.24349976 7.76467896 C184.37900246 7.73788003 178.51449733 7.7167367 172.64997363 7.69667697 C166.50142192 7.67466123 160.35289367 7.64734953 154.20436096 7.62062073 C142.58496115 7.57090292 130.96554815 7.52588739 119.3461228 7.48259836 C106.10775449 7.43304612 92.86940975 7.37819527 79.6310643 7.32291877 C52.42073157 7.20942017 25.21037618 7.10251243 -2 7 C-1.125 1.125 -1.125 1.125 0 0 Z " fill="#6076C8" transform="translate(390,574)"/>
<path d="M0 0 C78.87 0 157.74 0 239 0 C239.33 1.65 239.66 3.3 240 5 C239.34 5.33 238.68 5.66 238 6 C237.2575 7.2375 237.2575 7.2375 236.5 8.5 C235 11 235 11 233 12 C233.309375 11.46375 233.61875 10.9275 233.9375 10.375 C235.3427092 7.50232915 235.3427092 7.50232915 236 2 C158.45 2 80.9 2 1 2 C0.67 1.34 0.34 0.68 0 0 Z " fill="#879CDC" transform="translate(624,828)"/>
<path d="M0 0 C0.75 1.75 0.75 1.75 1 4 C-0.28817344 5.37701298 -1.62804426 6.70644173 -3 8 C-4.25436187 10.63222962 -4.25436187 10.63222962 -5 13 C-5.66 13 -6.32 13 -7 13 C-7.0825 13.70125 -7.165 14.4025 -7.25 15.125 C-8.17341927 18.66477388 -9.93551432 20.99711174 -12 24 C-12.33 24.845625 -12.66 25.69125 -13 26.5625 C-14.22565576 29.55003591 -15.82344828 31.62557994 -18 34 C-19.485 34.495 -19.485 34.495 -21 35 C-21.103125 36.0725 -21.20625 37.145 -21.3125 38.25 C-21.97202199 41.84739269 -22.45776191 43.45776191 -25 46 C-25.66 46 -26.32 46 -27 46 C-27.268125 46.969375 -27.53625 47.93875 -27.8125 48.9375 C-28.204375 49.948125 -28.59625 50.95875 -29 52 C-30.485 52.495 -30.485 52.495 -32 53 C-32.61067144 54.85744207 -32.61067144 54.85744207 -33 57 C-34.34051602 60.2555389 -34.92607673 60.95071782 -38 63 C-39.20450304 65.55183404 -39.20450304 65.55183404 -40 68 C-40.66 68 -41.32 68 -42 68 C-40.34564465 61.54801415 -36.70204136 55.70204136 -32 51 C-31.5359375 49.824375 -31.5359375 49.824375 -31.0625 48.625 C-29.99947806 45.99871049 -28.87811821 44.11288299 -27 42 C-26.34 42 -25.68 42 -25 42 C-24.773125 40.80375 -24.54625 39.6075 -24.3125 38.375 C-23.17773966 33.77922061 -21.16482699 31.4735906 -18 28 C-16.98133771 26.34467377 -15.98189187 24.67739862 -15 23 C-14.15292802 21.828172 -13.29821702 20.66184251 -12.4375 19.5 C-10.94466811 17.45066864 -9.96005999 15.89349331 -9.0625 13.5 C-7.72249277 10.34704181 -5.74742115 8.2465834 -3.4375 5.74609375 C-1.93959302 3.92662522 -0.97346782 2.13882113 0 0 Z " fill="#C6CFED" transform="translate(467,817)"/>
<path d="M0 0 C0.495 0.99 0.495 0.99 1 2 C-0.42846561 6.12667842 -1.73799528 8.68687241 -4.5625 12.0625 C-7.03178505 15.03830506 -8.02985169 17.29579737 -9 21 C-9.66 21 -10.32 21 -11 21 C-11.0825 21.515625 -11.165 22.03125 -11.25 22.5625 C-12.1130998 25.36757434 -13.5191877 27.67071421 -15.01171875 30.18359375 C-16.37142252 32.68265404 -17.20299089 35.27688553 -18 38 C-18.66 38 -19.32 38 -20 38 C-20.2475 38.78375 -20.495 39.5675 -20.75 40.375 C-22.15389099 43.32317108 -23.00675737 43.9024777 -26 45 C-26 46.32 -26 47.64 -26 49 C-26.66 49 -27.32 49 -28 49 C-28.12375 49.598125 -28.2475 50.19625 -28.375 50.8125 C-29 53 -29 53 -31 56 C-31.66 56 -32.32 56 -33 56 C-30.98112525 47.78990933 -26.93030489 42.02032849 -21 36 C-20.34 36 -19.68 36 -19 36 C-18.87882812 35.29488281 -18.75765625 34.58976563 -18.6328125 33.86328125 C-16.80166274 25.57789377 -13.34194448 18.78382279 -7.5078125 12.671875 C-5.64223904 10.60331168 -4.79024091 8.65808305 -4 6 C-2.22222222 1.11111111 -2.22222222 1.11111111 0 0 Z " fill="#C9D1EE" transform="translate(426,879)"/>
<path d="M0 0 C0.85875229 -0.00043808 1.71750458 -0.00087616 2.60227966 -0.00132751 C5.4431729 0.00076394 8.28347733 0.02411174 11.12426758 0.04760742 C13.09295835 0.05320211 15.06165329 0.05747281 17.03034973 0.06047058 C22.21393347 0.07192937 27.39726534 0.10140551 32.58074951 0.13458252 C37.86930941 0.16526109 43.15790998 0.17897119 48.4465332 0.1940918 C58.82489912 0.22627416 69.20307804 0.27748306 79.58129883 0.34057617 C79.58129883 0.67057617 79.58129883 1.00057617 79.58129883 1.34057617 C77.95970856 1.33938278 77.95970856 1.33938278 76.30535889 1.33816528 C66.12280796 1.33456469 55.94076218 1.36231647 45.75837326 1.42085457 C40.5232834 1.44994078 35.28864246 1.46793596 30.0534668 1.46069336 C25.00216809 1.45411138 19.95175735 1.47652057 14.9006424 1.51913071 C12.97254852 1.53028214 11.04436482 1.53094377 9.11626434 1.52099991 C6.41709778 1.50886231 3.72065623 1.53384134 1.02172852 1.56762695 C0.22259537 1.55540604 -0.57653778 1.54318512 -1.39988708 1.53059387 C-3.91258739 1.52229106 -3.91258739 1.52229106 -7.41870117 2.34057617 C-10.43974439 5.89264355 -12.20055239 9.7650514 -14.04370117 14.02807617 C-15.35446349 17.04616903 -16.58617245 19.59178308 -18.41870117 22.34057617 C-20.54370117 23.02807617 -20.54370117 23.02807617 -22.41870117 23.34057617 C-21.41870117 21.34057617 -21.41870117 21.34057617 -20.41870117 19.34057617 C-20.00620117 18.47432617 -19.59370117 17.60807617 -19.16870117 16.71557617 C-16.79433101 12.13643372 -14.26384995 7.64534555 -11.41870117 3.34057617 C-11.06639938 2.80579147 -10.7140976 2.27100677 -10.35112 1.72001648 C-7.21029571 -0.52203352 -3.71712826 -0.04936995 0 0 Z " fill="#7285CD" transform="translate(468.418701171875,464.659423828125)"/>
<path d="M0 0 C1 3 1 3 -0.25 6 C-2 9 -2 9 -3.484375 10.44921875 C-5.13954201 12.14277881 -5.98986595 13.67859182 -7 15.8125 C-7.3403125 16.51503906 -7.680625 17.21757813 -8.03125 17.94140625 C-8.86220169 19.70717859 -9.68219933 21.47809855 -10.5 23.25 C-12.04509064 26.08266617 -13.73357422 27.73357422 -16 30 C-16.95040384 31.60585477 -17.89616773 33.21516861 -18.79296875 34.8515625 C-20.33315285 37.59299052 -21.96648834 40.26602573 -23.625 42.9375 C-24.21539063 43.89527344 -24.80578125 44.85304688 -25.4140625 45.83984375 C-26.19910156 46.90912109 -26.19910156 46.90912109 -27 48 C-27.66 48 -28.32 48 -29 48 C-29.12375 48.5775 -29.2475 49.155 -29.375 49.75 C-30.00648824 52.02335767 -30.88858191 53.9253529 -32 56 C-32.99 56 -33.98 56 -35 56 C-32.01492536 47.31614651 -25.97043028 39.83356729 -20.203125 32.8125 C-16.67573931 28.47110223 -14.18833159 24.50503536 -12.09765625 19.328125 C-10.37718732 15.67901651 -7.97981336 12.55803571 -5.61328125 9.3046875 C-3.74005972 6.62865674 -2.36532405 3.95820211 -1 1 C-0.67 0.67 -0.34 0.34 0 0 Z " fill="#6080D3" transform="translate(859,838)"/>
<path d="M0 0 C0.33 0.66 0.66 1.32 1 2 C0.0727001 3.70818403 -0.94712186 5.36622358 -2 7 C-2.67065738 8.20612295 -3.33719288 9.41454529 -4 10.625 C-6.74534161 15.25776398 -6.74534161 15.25776398 -9 17 C-9.66 17 -10.32 17 -11 17 C-11.103125 17.66 -11.20625 18.32 -11.3125 19 C-12.19171928 22.83659323 -13.50226983 26.36550811 -15 30 C-15.30035156 30.74507812 -15.60070312 31.49015625 -15.91015625 32.2578125 C-16.82089691 34.31527521 -17.69310824 36.16760981 -19 38 C-21.75 39 -21.75 39 -24 39 C-24.061875 39.53625 -24.12375 40.0725 -24.1875 40.625 C-25.38027382 44.11156962 -27.56197166 46.24940393 -30 49 C-30.33 48.34 -30.66 47.68 -31 47 C-30.67 46.01 -30.34 45.02 -30 44 C-29.34 44 -28.68 44 -28 44 C-27.79375 43.319375 -27.5875 42.63875 -27.375 41.9375 C-26.11620838 39.24826337 -25.02242468 37.77945815 -23.0625 35.625 C-20.11321908 32.32038403 -18.67702056 29.12267554 -17 25 C-15.48622796 22.3769294 -13.90830538 19.80335489 -12.3046875 17.234375 C-10.87060676 14.95396796 -10.87060676 14.95396796 -10 12 C-9.01 12 -8.02 12 -7 12 C-6.731875 11.236875 -6.46375 10.47375 -6.1875 9.6875 C-5.0249027 7.05635874 -4.02708537 5.94262348 -2 4 C-0.82425289 1.90010348 -0.82425289 1.90010348 0 0 Z " fill="#778BD2" transform="translate(532,714)"/>
<path d="M0 0 C0.66 0.33 1.32 0.66 2 1 C-3.84997641 12.1344551 -3.84997641 12.1344551 -8 17 C-10.09035043 20.01010463 -11.3085861 22.83920781 -12.375 26.3125 C-14.70670391 33.61121901 -18.54796182 38.68775767 -24 44 C-25.43408849 45.95091909 -26.71100417 47.94715479 -28 50 C-28.33 49.34 -28.66 48.68 -29 48 C-26.51612903 41.25806452 -26.51612903 41.25806452 -24 40 C-22.9563171 38.36033425 -21.96277284 36.68844491 -21 35 C-20.48179687 34.16339844 -19.96359375 33.32679688 -19.4296875 32.46484375 C-18.66011719 31.21380859 -18.66011719 31.21380859 -17.875 29.9375 C-17.35679687 29.10089844 -16.83859375 28.26429688 -16.3046875 27.40234375 C-14.92214199 25.11664054 -14.92214199 25.11664054 -14.5078125 22.81640625 C-14 21 -14 21 -11 19 C-9.99831469 17.05167065 -9.99831469 17.05167065 -9.3125 14.875 C-9.06113281 14.15054688 -8.80976562 13.42609375 -8.55078125 12.6796875 C-8.36902344 12.12539063 -8.18726563 11.57109375 -8 11 C-7.01 11 -6.02 11 -5 11 C-4.9175 10.484375 -4.835 9.96875 -4.75 9.4375 C-3.67859775 5.95544268 -1.86476395 3.12799115 0 0 Z " fill="#7C92D7" transform="translate(840,505)"/>
<path d="M0 0 C3 1 3 1 4.5 3.875 C4.995 4.90625 5.49 5.9375 6 7 C7.45833358 8.62514468 7.45833358 8.62514468 9 10 C10.73508563 12.06875595 11.87837552 13.48309597 12.5 16.125 C12.88573402 18.40123363 12.88573402 18.40123363 16 20 C16 20.66 16 21.32 16 22 C16.66 22 17.32 22 18 22 C18.33 23.98 18.66 25.96 19 28 C19.66 28 20.32 28 21 28 C21.268125 28.639375 21.53625 29.27875 21.8125 29.9375 C22.88667752 32.33131686 22.88667752 32.33131686 26 33 C26 34.65 26 36.3 26 38 C21.88842535 36.51378146 20.77949339 34.26144352 18.875 30.4375 C17.16707745 26.5091874 17.16707745 26.5091874 14 24 C13.67 23.01 13.34 22.02 13 21 C12.01 20.34 11.02 19.68 10 19 C9.00270144 17.23059933 8.0075534 15.45960772 7.05078125 13.66796875 C6.01979342 11.80098382 6.01979342 11.80098382 3.75 10.375 C3.1725 9.92125 2.595 9.4675 2 9 C1.75 6.3125 1.75 6.3125 2 4 C1.34 4 0.68 4 0 4 C0 2.68 0 1.36 0 0 Z " fill="#A3B1E2" transform="translate(647,610)"/>
<path d="M0 0 C0.75 1.625 0.75 1.625 1 4 C-0.26220093 6.04563599 -1.60287726 8.04402816 -3 10 C-3.31324219 10.78890625 -3.62648438 11.5778125 -3.94921875 12.390625 C-5.046087 15.11444652 -6.37864389 17.36830566 -8 19.8125 C-8.515625 20.60269531 -9.03125 21.39289062 -9.5625 22.20703125 C-10.036875 22.79871094 -10.51125 23.39039063 -11 24 C-11.66 24 -12.32 24 -13 24 C-13 25.65 -13 27.3 -13 29 C-13.639375 29.2475 -14.27875 29.495 -14.9375 29.75 C-17.17876824 30.79734983 -17.17876824 30.79734983 -17.625 33 C-17.74875 33.66 -17.8725 34.32 -18 35 C-18.66 35.66 -19.32 36.32 -20 37 C-20.70710678 38.64991582 -21.37943989 40.31562256 -22 42 C-23 40 -23 40 -22.25 37.6875 C-21 35 -21 35 -19.5625 32.625 C-18.29071464 30.4884006 -17.36216378 28.53830935 -16.4375 26.25 C-15 23 -15 23 -13 22 C-12.525625 20.88625 -12.05125 19.7725 -11.5625 18.625 C-10 15 -10 15 -8.59765625 13.625 C-6.4657727 11.45662944 -5.28579439 9.06188983 -3.875 6.375 C-1.08333333 1.08333333 -1.08333333 1.08333333 0 0 Z " fill="#BFC8E8" transform="translate(415,535)"/>
<path d="M0 0 C22.44 0 44.88 0 68 0 C66.78451814 7.29289117 64.15224233 10.03176633 59 15 C59.2165625 14.39671875 59.433125 13.7934375 59.65625 13.171875 C59.9346875 12.37265625 60.213125 11.5734375 60.5 10.75 C60.7784375 9.96109375 61.056875 9.1721875 61.34375 8.359375 C62.17864861 5.76587262 62.17864861 5.76587262 62 2 C41.54 1.67 21.08 1.34 0 1 C0 0.67 0 0.34 0 0 Z " fill="#BAC6EB" transform="translate(798,466)"/>
<path d="M0 0 C1 2 1 2 0.1875 5 C-1 8 -1 8 -3 10 C-5.68063427 10.18799291 -8.25709458 10.25181991 -10.93798828 10.22705078 C-12.16737625 10.22748886 -12.16737625 10.22748886 -13.42160034 10.22793579 C-16.13794443 10.22653944 -18.85401618 10.21096401 -21.5703125 10.1953125 C-23.45075328 10.19158345 -25.33119599 10.18873597 -27.2116394 10.18673706 C-32.16665998 10.17909207 -37.12156374 10.15943619 -42.07653809 10.1373291 C-47.1304364 10.11688928 -52.18435354 10.10773934 -57.23828125 10.09765625 C-67.15890555 10.07619109 -77.07944307 10.04204474 -87 10 C-87 9.67 -87 9.34 -87 9 C-59.94 9 -32.88 9 -5 9 C-4.34 7.68 -3.68 6.36 -3 5 C-2.01120795 3.32665961 -1.01351664 1.65848177 0 0 Z " fill="#6E89D6" transform="translate(796,935)"/>
<path d="M0 0 C0.703125 1.72265625 0.703125 1.72265625 1 4 C-0.328125 6.18359375 -0.328125 6.18359375 -2.25 8.4375 C-5.74584377 12.68938935 -8.46736168 16.6269218 -10.5 21.75 C-10.995 22.8225 -11.49 23.895 -12 25 C-12.99 25.33 -13.98 25.66 -15 26 C-15.309375 26.61875 -15.61875 27.2375 -15.9375 27.875 C-17.20298687 30.40597375 -18.67272837 31.44848558 -21 33 C-19.68981854 28.38706943 -17.87491682 25.07617606 -15 21.25 C-14.29875 20.30640625 -13.5975 19.3628125 -12.875 18.390625 C-11 16 -11 16 -9 14 C-8.5875 12.948125 -8.175 11.89625 -7.75 10.8125 C-5.99965032 6.49557541 -3.15971806 3.36423055 0 0 Z " fill="#788FD6" transform="translate(747,654)"/>
<path d="M0 0 C3.76128272 2.88435445 6.98338886 5.52666596 9.25 9.75 C10.7730204 13.18784519 10.7730204 13.18784519 14 15 C14.9921875 17.20703125 14.9921875 17.20703125 15.875 19.8125 C17.54197119 24.27485366 19.47076906 26.74939255 23 30 C24.3125 32.8125 24.3125 32.8125 25 35 C18.23756114 32.74585371 14.62010292 25.04447764 11.1015625 19.234375 C10 17 10 17 10 14 C9.01 13.67 8.02 13.34 7 13 C5.5625 10.8125 5.5625 10.8125 4 8 C2.9171875 6.4221875 2.9171875 6.4221875 1.8125 4.8125 C0 2 0 2 0 0 Z " fill="#C3CDED" transform="translate(579,764)"/>
<path d="M0 0 C4.73040085 4.18978361 4.73040085 4.18978361 5.7421875 7.23046875 C6.7679193 10.22462871 7.6579741 11.83728336 10 14 C15.92656819 15.3267498 21.76638459 15.16896873 27.8125 15.0625 C29.47592403 15.06557592 31.13934582 15.0726933 32.80273438 15.08398438 C36.86995207 15.10279456 40.93331385 15.06622029 45 15 C45 15.33 45 15.66 45 16 C39.98314356 16.19844556 34.96859019 16.34323193 29.94873047 16.43945312 C28.24324743 16.47957452 26.53803772 16.53408953 24.83349609 16.60351562 C10.58633032 17.16907737 10.58633032 17.16907737 6.58300781 14.21875 C5.10061389 12.20017105 4.06257515 10.25639188 3 8 C2.34 7.67 1.68 7.34 1 7 C0.59270772 4.67843403 0.25561323 2.3431213 0 0 Z " fill="#E4EAF8" transform="translate(616,816)"/>
<path d="M0 0 C2.3125 0.5 2.3125 0.5 5 2 C6.01085992 4.00473061 6.68026684 5.97585988 7.32421875 8.125 C7.92495258 10.20859478 7.92495258 10.20859478 10 12 C10 13.32 10 14.64 10 16 C10.66 16 11.32 16 12 16 C13.7265625 18.1875 13.7265625 18.1875 15.625 21 C16.25664063 21.928125 16.88828125 22.85625 17.5390625 23.8125 C18.02117188 24.534375 18.50328125 25.25625 19 26 C18.67 26.66 18.34 27.32 18 28 C16.82174642 27.09827532 15.65768423 26.17798498 14.5 25.25 C13.8503125 24.73953125 13.200625 24.2290625 12.53125 23.703125 C11 22 11 22 11 18 C9.68 17.34 8.36 16.68 7 16 C7 14.35 7 12.7 7 11 C6.34 11 5.68 11 5 11 C4.54625 9.9275 4.0925 8.855 3.625 7.75 C2.49911463 5.11937683 1.32079794 2.53999604 0 0 Z " fill="#AEBBE6" transform="translate(557,729)"/>
<path d="M0 0 C0.99 0.495 0.99 0.495 2 1 C2.268125 1.969375 2.53625 2.93875 2.8125 3.9375 C3.204375 4.948125 3.59625 5.95875 4 7 C5.17369141 7.44085937 5.17369141 7.44085937 6.37109375 7.890625 C9.68065217 9.28722915 10.49069991 10.72446537 12.25 13.8125 C13.00023437 15.09060547 13.00023437 15.09060547 13.765625 16.39453125 C14.98200191 18.96201035 15.5779843 21.20163396 16 24 C15.01 23.34 14.02 22.68 13 22 C13 21.34 13 20.68 13 20 C12.34 20 11.68 20 11 20 C9.6328125 18.2421875 9.6328125 18.2421875 8.125 15.875 C7.59777344 15.05257812 7.07054687 14.23015625 6.52734375 13.3828125 C6.02332031 12.59648438 5.51929688 11.81015625 5 11 C4.236875 9.9275 3.47375 8.855 2.6875 7.75 C1.03560266 5.05801914 0.36604546 3.11138641 0 0 Z " fill="#A7B4E3" transform="translate(631,586)"/>
<path d="M0 0 C0 3.44691818 -0.83342442 5.4668791 -2.1875 8.625 C-2.59355469 9.60726562 -2.99960937 10.58953125 -3.41796875 11.6015625 C-5 14 -5 14 -7.67578125 14.8359375 C-8.44277344 14.89007812 -9.20976562 14.94421875 -10 15 C-10.061875 15.53625 -10.12375 16.0725 -10.1875 16.625 C-11.38027382 20.11156962 -13.56197166 22.24940393 -16 25 C-16.33 24.34 -16.66 23.68 -17 23 C-16.505 21.515 -16.505 21.515 -16 20 C-15.34 20 -14.68 20 -14 20 C-13.76152344 19.278125 -13.52304687 18.55625 -13.27734375 17.8125 C-11.8086083 14.57858707 -10.00599266 12.56787406 -7.5625 10 C-4.55521891 6.82922586 -2.12492787 3.82623669 0 0 Z " fill="#C3CCEC" transform="translate(518,738)"/>
<path d="M0 0 C0.66 0 1.32 0 2 0 C0.32698912 5.85553806 -2.63720084 10.07604825 -6.125 15 C-7.98455977 17.97529564 -8.90797541 20.68782623 -10 24 C-11.5078125 26.1171875 -11.5078125 26.1171875 -13.125 27.875 C-13.66382813 28.47054687 -14.20265625 29.06609375 -14.7578125 29.6796875 C-15.16773438 30.11539063 -15.57765625 30.55109375 -16 31 C-17 29 -17 29 -16.3125 26.5 C-15 24 -15 24 -13 23.0625 C-9.97622919 21.45612176 -10.02697356 19.25208292 -9 16 C-3.76524954 5.38262477 -3.76524954 5.38262477 -1 4 C-0.34786708 1.97536745 -0.34786708 1.97536745 0 0 Z " fill="#B6C5EB" transform="translate(855,840)"/>
<path d="M0 0 C0.75 1.75 0.75 1.75 1 4 C-0.28817344 5.37701298 -1.62804426 6.70644173 -3 8 C-4.25436187 10.63222962 -4.25436187 10.63222962 -5 13 C-5.66 13 -6.32 13 -7 13 C-7.0825 13.70125 -7.165 14.4025 -7.25 15.125 C-8.4934741 19.89165071 -10.68022158 23.10015107 -14.75 25.875 C-15.86375 26.431875 -15.86375 26.431875 -17 27 C-15.79340289 24.25773384 -14.27331021 21.95829963 -12.5 19.5625 C-10.98430111 17.49324152 -9.97001132 15.92003019 -9.0625 13.5 C-7.72249277 10.34704181 -5.74742115 8.2465834 -3.4375 5.74609375 C-1.93959302 3.92662522 -0.97346782 2.13882113 0 0 Z " fill="#BCC6EA" transform="translate(467,817)"/>
<path d="M0 0 C1.70884005 1.62339805 3.37446717 3.29319053 5 5 C5 5.66 5 6.32 5 7 C5.66 7 6.32 7 7 7 C7.433125 7.886875 7.86625 8.77375 8.3125 9.6875 C10.55070091 14.0810055 12.97219185 18.10710381 16 22 C15.67 22.66 15.34 23.32 15 24 C10.75730499 21.09710342 9.26812151 18.96680925 8 14 C7.67 13.01 7.34 12.02 7 11 C6.01 11 5.02 11 4 11 C3.32880451 9.5437455 2.66318193 8.08492133 2 6.625 C1.62875 5.81289063 1.2575 5.00078125 0.875 4.1640625 C0 2 0 2 0 0 Z " fill="#8498D9" transform="translate(678,656)"/>
<path d="M0 0 C0.99 0 1.98 0 3 0 C2.65675635 3.08919284 2.3991583 4.61414697 0.125 6.8125 C-2.05290069 9.0544566 -2.51501785 10.17381305 -3.4375 13.0625 C-4.50737378 16.2542901 -4.84265078 16.8829029 -7.6875 19 C-8.450625 19.33 -9.21375 19.66 -10 20 C-9.70996094 19.45472656 -9.41992188 18.90945313 -9.12109375 18.34765625 C-7.45739865 14.86375119 -6.32325228 11.21553413 -5.09765625 7.55859375 C-4.01016696 5.02369879 -3.02030642 3.81111938 -1 2 C-0.67 1.34 -0.34 0.68 0 0 Z " fill="#B0C0E9" transform="translate(821,893)"/>
<path d="M0 0 C0.66 0.33 1.32 0.66 2 1 C-2.90114886 10.4432392 -8.05177766 19.77434332 -16 27 C-15.67 25.68 -15.34 24.36 -15 23 C-14.34 23 -13.68 23 -13 23 C-13 21.68 -13 20.36 -13 19 C-12.01 18.34 -11.02 17.68 -10 17 C-8.79549696 14.44816596 -8.79549696 14.44816596 -8 12 C-7.34 12 -6.68 12 -6 12 C-6 10.68 -6 9.36 -6 8 C-5.34 7.67 -4.68 7.34 -4 7 C-2.88365848 5.34948712 -2.88365848 5.34948712 -1.875 3.4375 C-1.25625 2.303125 -0.6375 1.16875 0 0 Z " fill="#BBC7EB" transform="translate(760,630)"/>
<path d="M0 0 C0 1.32 0 2.64 0 4 C-0.99 4.495 -0.99 4.495 -2 5 C-2.495 5.825 -2.99 6.65 -3.5 7.5 C-5 10 -5 10 -7 11 C-6.690625 10.46375 -6.38125 9.9275 -6.0625 9.375 C-4.6572908 6.50232915 -4.6572908 6.50232915 -4 1 C-11.92 1 -19.84 1 -28 1 C-28 0.67 -28 0.34 -28 0 C-23.89621612 -0.19660714 -19.79196562 -0.3807276 -15.6875 -0.5625 C-14.52025391 -0.61857422 -13.35300781 -0.67464844 -12.15039062 -0.73242188 C-11.03212891 -0.78076172 -9.91386719 -0.82910156 -8.76171875 -0.87890625 C-7.2142395 -0.94960327 -7.2142395 -0.94960327 -5.63549805 -1.02172852 C-3 -1 -3 -1 0 0 Z " fill="#93A8E1" transform="translate(864,829)"/>
<path d="M0 0 C1 2 1 2 0.125 4.9375 C-2.00740738 9.69057627 -5.47431375 13.43178499 -8.84375 17.3515625 C-10.84041607 19.8039893 -12.45079182 22.2491624 -14 25 C-14.33 24.34 -14.66 23.68 -15 23 C-12.57795193 18.06274816 -9.89567976 14.89567976 -6 11 C-4.76709799 8.54295238 -4.76709799 8.54295238 -4 6 C-2.22222222 1.11111111 -2.22222222 1.11111111 0 0 Z " fill="#7B8FD3" transform="translate(426,879)"/>
<path d="M0 0 C0.66 0.33 1.32 0.66 2 1 C-0.99701273 6.70431423 -3.91905303 11.99754888 -8 17 C-9.33507838 19.34551763 -10.60671159 21.71482103 -11.8515625 24.109375 C-13 26 -13 26 -15 27 C-14.6875 24.125 -14.6875 24.125 -14 21 C-13.01 20.34 -12.02 19.68 -11 19 C-9.99831469 17.05167065 -9.99831469 17.05167065 -9.3125 14.875 C-9.06113281 14.15054688 -8.80976562 13.42609375 -8.55078125 12.6796875 C-8.36902344 12.12539063 -8.18726563 11.57109375 -8 11 C-7.01 11 -6.02 11 -5 11 C-4.9175 10.484375 -4.835 9.96875 -4.75 9.4375 C-3.67859775 5.95544268 -1.86476395 3.12799115 0 0 Z " fill="#B9C6EB" transform="translate(840,505)"/>
<path d="M0 0 C1 2 1 2 0.3125 4.296875 C-1.14930893 7.3075053 -2.88797589 9.65655863 -5 12.25 C-6.051875 13.55710937 -6.051875 13.55710937 -7.125 14.890625 C-9 17 -9 17 -11 18 C-9.38573675 11.97604203 -7.81232475 8.21078416 -3 4 C-1.97186389 2.68824014 -0.95915568 1.3630107 0 0 Z " fill="#93A5DF" transform="translate(810,555)"/>
<path d="M0 0 C1.15625 3.671875 1.15625 3.671875 -0.25 6.625 C-2 9 -2 9 -5 11 C-6.13179527 12.83400401 -7.18834019 14.71549459 -8.1875 16.625 C-8.98220703 18.12933594 -8.98220703 18.12933594 -9.79296875 19.6640625 C-10.19128906 20.43492187 -10.58960938 21.20578125 -11 22 C-11.66 22 -12.32 22 -13 22 C-11.78348666 17.13394663 -9.63316394 13.96493593 -6.59765625 10.1015625 C-4.15345922 6.88645736 -2.07880995 3.45855107 0 0 Z " fill="#758DD6" transform="translate(849,495)"/>
<path d="M0 0 C0.33 0.66 0.66 1.32 1 2 C0.67 2.99 0.34 3.98 0 5 C-0.66 5 -1.32 5 -2 5 C-2.11730469 5.56589844 -2.23460937 6.13179687 -2.35546875 6.71484375 C-3.06381894 9.22626716 -4.06173399 11.27394671 -5.3125 13.5625 C-5.72113281 14.32691406 -6.12976563 15.09132813 -6.55078125 15.87890625 C-8.11411624 18.16702188 -9.7080009 19.4703716 -12 21 C-10.66747841 16.33617443 -8.78998178 12.95247419 -6 9 C-4.91298048 7.37746351 -3.82980457 5.75234698 -2.75 4.125 C-1.96882813 2.95324219 -1.96882813 2.95324219 -1.171875 1.7578125 C-0.59179688 0.88769531 -0.59179688 0.88769531 0 0 Z " fill="#D0D8F0" transform="translate(500,765)"/>
<path d="M0 0 C0.66 0 1.32 0 2 0 C1.4887988 4.50343911 -0.17521358 6.87525426 -3.0625 10.3125 C-3.79597656 11.19550781 -4.52945313 12.07851563 -5.28515625 12.98828125 C-5.85105469 13.65214844 -6.41695312 14.31601562 -7 15 C-7.578125 13.08984375 -7.578125 13.08984375 -8 11 C-6.75 9.5625 -6.75 9.5625 -5 8 C-3.96986723 6.35178756 -2.96885372 4.68496298 -2 3 C-1.34 2.01 -0.68 1.02 0 0 Z " fill="#708CD7" transform="translate(806,920)"/>
<path d="M0 0 C0 0.99 0 1.98 0 3 C-0.45375 3.433125 -0.9075 3.86625 -1.375 4.3125 C-3.57985432 6.60215641 -4.03736271 8.99175846 -5 12 C-6.1875 14.8125 -6.1875 14.8125 -8 17 C-11.6875 17.8125 -11.6875 17.8125 -15 18 C-15.66 16.68 -16.32 15.36 -17 14 C-15.515 14.99 -15.515 14.99 -14 16 C-11.96323357 16.22292585 -11.96323357 16.22292585 -10 15 C-8.52299501 12.6725982 -7.24193465 10.44247149 -6 8 C-4.24701165 4.9147405 -2.6377345 2.38652169 0 0 Z " fill="#8A9DDB" transform="translate(725,687)"/>
<path d="M0 0 C2.45704937 1.55613127 3.80470698 2.49781795 4.875 5.25 C6.47493291 9.16094712 9.16827469 11.91003559 12 15 C11.67 15.66 11.34 16.32 11 17 C6.125 13.375 6.125 13.375 5 10 C4.34 9.67 3.68 9.34 3 9 C0.60284556 5.58866484 0 4.29387011 0 0 Z " fill="#A9B7E5" transform="translate(604,799)"/>
<path d="M0 0 C-0.29261719 0.58007812 -0.58523438 1.16015625 -0.88671875 1.7578125 C-1.57304578 3.14009921 -2.24546489 4.52951815 -2.89453125 5.9296875 C-5.08461336 10.57079768 -7.56653608 14.18504009 -11 18 C-12 15 -12 15 -10.6875 12.3125 C-10.130625 11.549375 -9.57375 10.78625 -9 10 C-8.34 10 -7.68 10 -7 10 C-6.814375 9.1646875 -6.814375 9.1646875 -6.625 8.3125 C-5.93456646 5.7578959 -5.10518316 3.40539865 -4 1 C-2 0 -2 0 0 0 Z " fill="#DCE3F6" transform="translate(744,657)"/>
<path d="M0 0 C0.6953125 1.6953125 0.6953125 1.6953125 1 4 C-0.2578125 6.3671875 -0.2578125 6.3671875 -2.125 8.875 C-2.76824219 9.74640625 -3.41148437 10.6178125 -4.07421875 11.515625 C-6.31746118 14.40954424 -8.59920721 17.23545073 -11 20 C-11 17 -11 17 -9.375 15 C-6.48037518 11.34363181 -4.44246635 7.44294893 -2.26953125 3.328125 C-1 1 -1 1 0 0 Z " fill="#8D9CD6" transform="translate(415,535)"/>
<path d="M0 0 C0.67578125 1.734375 0.67578125 1.734375 1 4 C-0.14453125 6.140625 -0.14453125 6.140625 -1.8125 8.25 C-2.35519531 8.95640625 -2.89789063 9.6628125 -3.45703125 10.390625 C-3.96621094 10.92171875 -4.47539062 11.4528125 -5 12 C-5.66 12 -6.32 12 -7 12 C-7.103125 12.5775 -7.20625 13.155 -7.3125 13.75 C-8.09792798 16.32049158 -9.30504197 17.93657284 -11 20 C-10.4454626 16.67277559 -9.75986957 13.8986087 -8 11 C-7.34 10.67 -6.68 10.34 -6 10 C-5.09328027 8.53117053 -4.24592135 7.02514118 -3.4375 5.5 C-1.08135593 1.08135593 -1.08135593 1.08135593 0 0 Z " fill="#8E9CD6" transform="translate(445,488)"/>
<path d="M0 0 C5.82601289 4.46770089 9.87926918 8.61047097 11.75 15.9375 C11.87375 16.9584375 11.87375 16.9584375 12 18 C11.34 17.67 10.68 17.34 10 17 C10 16.01 10 15.02 10 14 C9.01 13.67 8.02 13.34 7 13 C5.5625 10.8125 5.5625 10.8125 4 8 C2.9171875 6.4221875 2.9171875 6.4221875 1.8125 4.8125 C0 2 0 2 0 0 Z " fill="#CBD4F0" transform="translate(579,764)"/>
<path d="M0 0 C1.125 3.75 1.125 3.75 0 6 C-0.66 6 -1.32 6 -2 6 C-2.12375 6.5775 -2.2475 7.155 -2.375 7.75 C-3.00648824 10.02335767 -3.88858191 11.9253529 -5 14 C-5.99 14 -6.98 14 -8 14 C-6.33363871 9.15240351 -3.67375699 3.67375699 0 0 Z " fill="#7792D9" transform="translate(832,880)"/>
<path d="M0 0 C0.50423019 5.29441695 -0.81076967 7.81413519 -4 12 C-5 9 -5 9 -4.0625 6.8125 C-3.711875 6.214375 -3.36125 5.61625 -3 5 C-2.34 5 -1.68 5 -1 5 C-1.33 3.68 -1.66 2.36 -2 1 C-7.28 1 -12.56 1 -18 1 C-18 0.67 -18 0.34 -18 0 C-15.93831015 -0.19620767 -13.87559002 -0.38160753 -11.8125 -0.5625 C-10.08966797 -0.71912109 -10.08966797 -0.71912109 -8.33203125 -0.87890625 C-5.31368801 -0.98859985 -2.91076064 -0.74002389 0 0 Z " fill="#5979D0" transform="translate(865,828)"/>
<path d="M0 0 C1.67542976 0.28604898 3.34385343 0.61781233 5 1 C5.33 2.65 5.66 4.3 6 6 C4.02 5.01 2.04 4.02 0 3 C-0.12375 3.763125 -0.2475 4.52625 -0.375 5.3125 C-1 8 -1 8 -3 11 C-3.66 10.67 -4.32 10.34 -5 10 C-4.35699811 8.51960029 -3.71051501 7.04071218 -3.0625 5.5625 C-2.70285156 4.73878906 -2.34320312 3.91507813 -1.97265625 3.06640625 C-1 1 -1 1 0 0 Z " fill="#9CABDF" transform="translate(538,703)"/>
<path d="M0 0 C0.66 0 1.32 0 2 0 C2.33 1.98 2.66 3.96 3 6 C3.66 6 4.32 6 5 6 C5.268125 6.639375 5.53625 7.27875 5.8125 7.9375 C6.88667752 10.33131686 6.88667752 10.33131686 10 11 C10 12.65 10 14.3 10 16 C6.43095018 14.57694602 5.10577935 13.05343443 3.3125 9.6875 C2.89613281 8.92824219 2.47976563 8.16898438 2.05078125 7.38671875 C0.96601601 4.9228096 0.42695621 2.65088195 0 0 Z " fill="#A9B7E5" transform="translate(663,632)"/>
<path d="M0 0 C0 4.49189194 -1.69732552 8.1744705 -4 12 C-6.75 13.5625 -6.75 13.5625 -9 14 C-8.33333333 12.66666667 -7.66666667 11.33333333 -7 10 C-6.54625 9.01 -6.0925 8.02 -5.625 7 C-4.04463719 4.08240713 -2.45436742 2.20046735 0 0 Z " fill="#99A7DA" transform="translate(455,474)"/>
<path d="M0 0 C0 3.36472501 -0.68209277 4.61432349 -2.3125 7.5 C-2.74175781 8.2734375 -3.17101562 9.046875 -3.61328125 9.84375 C-5 12 -5 12 -6.60546875 13.59375 C-8.26673556 15.06109444 -8.26673556 15.06109444 -9 18 C-9.66 18 -10.32 18 -11 18 C-9.92598892 15.08482708 -9.22189824 13.22189824 -7 11 C-6.5978125 9.88625 -6.5978125 9.88625 -6.1875 8.75 C-4.65519755 5.20151012 -2.55578853 2.8920765 0 0 Z " fill="#BBC5E9" transform="translate(487,786)"/>
<path d="M0 0 C0.77734375 1.609375 0.77734375 1.609375 1 4 C-0.40367622 6.26229236 -1.77300018 8.20063057 -3.4375 10.25 C-4.0881543 11.08144531 -4.0881543 11.08144531 -4.75195312 11.9296875 C-5.82333224 13.29540154 -6.91021796 14.64892519 -8 16 C-8.33 14.68 -8.66 13.36 -9 12 C-8.34 11.67 -7.68 11.34 -7 11 C-6.11527822 9.55098452 -5.28893925 8.06581412 -4.5 6.5625 C-3.12830757 3.95712077 -2.09139575 2.09139575 0 0 Z " fill="#647ECF" transform="translate(792,584)"/>
<path d="M0 0 C0 2.83967231 -0.40267181 5.23735711 -1 8 C-1.66 8 -2.32 8 -3 8 C-3.12375 8.598125 -3.2475 9.19625 -3.375 9.8125 C-4 12 -4 12 -6 15 C-6.66 15 -7.32 15 -8 15 C-6.31910452 8.85038239 -4.40439414 4.6424695 0 0 Z " fill="#B3BEE6" transform="translate(401,920)"/>
<path d="M0 0 C0.33 1.32 0.66 2.64 1 4 C0.01 4.495 0.01 4.495 -1 5 C-1.433125 6.093125 -1.86625 7.18625 -2.3125 8.3125 C-3.77112743 11.96658727 -5.71287989 13.7789729 -9 16 C-7.51637716 9.73581469 -3.75837844 5.08486495 0 0 Z " fill="#879BDB" transform="translate(735,671)"/>
<path d="M0 0 C1.32 0 2.64 0 4 0 C3.62257767 6.16456476 1.84129692 9.17375515 -2 14 C-2 11 -2 11 -1 8.125 C-0.05681824 5.17755699 0.17993185 3.05884147 0 0 Z " fill="#D0D9F2" transform="translate(860,467)"/>
<path d="M0 0 C0.99 0.33 1.98 0.66 3 1 C2.071875 2.3303125 2.071875 2.3303125 1.125 3.6875 C-1.03876037 6.80816521 -1.03876037 6.80816521 -2.0625 9.8125 C-2.371875 10.534375 -2.68125 11.25625 -3 12 C-3.99 12.33 -4.98 12.66 -6 13 C-5.34 10.03 -4.68 7.06 -4 4 C-2.68 3.67 -1.36 3.34 0 3 C0 2.01 0 1.02 0 0 Z " fill="#D0DAF3" transform="translate(801,923)"/>
<path d="M0 0 C0 4.4961244 -0.2717057 6.19504314 -3.375 9.625 C-6 12 -6 12 -9 14 C-8.56494141 13.13761719 -8.56494141 13.13761719 -8.12109375 12.2578125 C-7.40884564 10.82338947 -6.71166606 9.38130773 -6.03515625 7.9296875 C-5.71417969 7.25164063 -5.39320313 6.57359375 -5.0625 5.875 C-4.74410156 5.19179688 -4.42570312 4.50859375 -4.09765625 3.8046875 C-3 2 -3 2 0 0 Z " fill="#6E83CF" transform="translate(408,908)"/>
<path d="M0 0 C3.27742098 3.10026309 5.93104837 5.97098894 8 10 C8 10.66 8 11.32 8 12 C4.51722837 10.83907612 3.26533247 9.86942113 1 7 C0.25 3.25 0.25 3.25 0 0 Z " fill="#B2BFE8" transform="translate(616,816)"/>
<path d="M0 0 C4.08851671 1.3628389 5.54626098 3.52386972 8 7 C7.640625 9.19921875 7.640625 9.19921875 7 11 C0.28571429 4.85714286 0.28571429 4.85714286 0 0 Z " fill="#748AD4" transform="translate(696,684)"/>
<path d="M0 0 C0.75 1.625 0.75 1.625 1 4 C-1.96296296 9.59670782 -1.96296296 9.59670782 -5.25 10.875 C-5.8275 10.91625 -6.405 10.9575 -7 11 C-5.66666667 8.33333333 -4.33333333 5.66666667 -3 3 C-2.34 3 -1.68 3 -1 3 C-0.67 2.01 -0.34 1.02 0 0 Z " fill="#A8B4E0" transform="translate(423,524)"/>
<path d="M0 0 C3 1 3 1 4.203125 2.99609375 C4.54859375 3.80175781 4.8940625 4.60742188 5.25 5.4375 C5.78367187 6.64212891 5.78367187 6.64212891 6.328125 7.87109375 C7 10 7 10 6 12 C4 10.8125 4 10.8125 2 9 C1.75 6.3125 1.75 6.3125 2 4 C1.34 4 0.68 4 0 4 C0 2.68 0 1.36 0 0 Z " fill="#8093D6" transform="translate(647,610)"/>
<path d="M0 0 C0.33 0.99 0.66 1.98 1 3 C0.360625 3.2475 -0.27875 3.495 -0.9375 3.75 C-3.17876824 4.79734983 -3.17876824 4.79734983 -3.625 7 C-3.74875 7.66 -3.8725 8.32 -4 9 C-4.66 9.66 -5.32 10.32 -6 11 C-6.70710678 12.64991582 -7.37943989 14.31562256 -8 16 C-9 14 -9 14 -8.3125 11.8125 C-4.06451613 2.70967742 -4.06451613 2.70967742 0 0 Z " fill="#D9DFF2" transform="translate(401,561)"/>
<path d="M0 0 C0.66 0 1.32 0 2 0 C2.268125 0.763125 2.53625 1.52625 2.8125 2.3125 C3.79264168 4.99106782 3.79264168 4.99106782 5.5625 6.5 C7.48593335 8.50706089 7.63468585 10.29667526 8 13 C7.34 13 6.68 13 6 13 C4.4921875 10.91796875 4.4921875 10.91796875 2.875 8.1875 C2.33617187 7.29417969 1.79734375 6.40085937 1.2421875 5.48046875 C0 3 0 3 0 0 Z " fill="#CDD6F0" transform="translate(690,671)"/>
<path d="M0 0 C0 3 0 3 -1.33203125 4.39453125 C-1.88246094 4.92433594 -2.43289063 5.45414063 -3 6 C-3.9414298 7.53545874 -4.83634864 9.10021774 -5.6875 10.6875 C-6.34298828 11.89986328 -6.34298828 11.89986328 -7.01171875 13.13671875 C-7.33785156 13.75160156 -7.66398438 14.36648438 -8 15 C-9 12 -9 12 -8 9 C-7.34 8.67 -6.68 8.34 -6 8 C-5.71125 7.030625 -5.4225 6.06125 -5.125 5.0625 C-4 2 -4 2 -1.875 0.625 C-1.25625 0.41875 -0.6375 0.2125 0 0 Z " fill="#C9D5F1" transform="translate(833,877)"/>
<path d="M0 0 C0.8125 1.625 0.8125 1.625 1 4 C-1.3125 7.25 -1.3125 7.25 -4 10 C-4.66 10 -5.32 10 -6 10 C-5.58578031 5.16743695 -3.53586014 3.17320782 0 0 Z " fill="#D6DDF3" transform="translate(453,841)"/>
<path d="M0 0 C0.66 0 1.32 0 2 0 C5 4.38461538 5 4.38461538 5 7 C5.66 7 6.32 7 7 7 C7.33 8.98 7.66 10.96 8 13 C4.3260401 9.62392874 1.94593446 6.60879214 0 2 C0 1.34 0 0.68 0 0 Z " fill="#6B82D1" transform="translate(593,781)"/>
<path d="M0 0 C0.66 0.33 1.32 0.66 2 1 C1.23439544 2.2739902 0.46227374 3.54406512 -0.3125 4.8125 C-0.74175781 5.52019531 -1.17101562 6.22789062 -1.61328125 6.95703125 C-2.93137227 8.89889492 -4.32964176 10.36546713 -6 12 C-6.66 12.99 -7.32 13.98 -8 15 C-8 13.35 -8 11.7 -8 10 C-7.01 9.67 -6.02 9.34 -5 9 C-5 8.34 -5 7.68 -5 7 C-4.34 7 -3.68 7 -3 7 C-2.690625 6.030625 -2.38125 5.06125 -2.0625 4.0625 C-1 1 -1 1 0 0 Z " fill="#D9E0F4" transform="translate(727,680)"/>
<path d="M0 0 C0.33 1.32 0.66 2.64 1 4 C0.01 4.33 -0.98 4.66 -2 5 C-2.61067144 6.85744207 -2.61067144 6.85744207 -3 9 C-3.875 11.1875 -3.875 11.1875 -5 13 C-5.99 13.33 -6.98 13.66 -8 14 C-6.6744419 10.37723685 -5.05653045 7.36494652 -2.875 4.1875 C-2.33617187 3.39730469 -1.79734375 2.60710938 -1.2421875 1.79296875 C-0.83226562 1.20128906 -0.42234375 0.60960937 0 0 Z " fill="#C0CAEB" transform="translate(417,895)"/>
<path d="M0 0 C0.33 0.66 0.66 1.32 1 2 C0.0727001 3.70818403 -0.94712186 5.36622358 -2 7 C-2.66817402 8.24919491 -3.33480014 9.49921881 -4 10.75 C-6 14 -6 14 -9 15 C-7.53841581 10.48237613 -5.05265255 7.58686674 -2 4 C-0.72147713 1.78412652 -0.72147713 1.78412652 0 0 Z " fill="#AAB7E4" transform="translate(532,714)"/>
<path d="M0 0 C0.33 0.66 0.66 1.32 1 2 C-1.12081604 6.32018082 -2.79664822 9.44796499 -7 12 C-6.67 10.35 -6.34 8.7 -6 7 C-5.34 7 -4.68 7 -4 7 C-3.71125 6.21625 -3.4225 5.4325 -3.125 4.625 C-2 2 -2 2 0 0 Z " fill="#8496D7" transform="translate(508,751)"/>
<path d="M0 0 C0.33 0.66 0.66 1.32 1 2 C0.03567924 3.68756133 -0.9731657 5.3497306 -2 7 C-2.53850046 8.2424913 -3.05913009 9.49286592 -3.5625 10.75 C-5 14 -5 14 -7 15 C-6.67 13.35 -6.34 11.7 -6 10 C-5.34 10 -4.68 10 -4 10 C-4.0825 9.278125 -4.165 8.55625 -4.25 7.8125 C-3.92573441 4.16451206 -2.42680413 2.65431702 0 0 Z " fill="#5874CC" transform="translate(740,665)"/>
<path d="M0 0 C4.0042343 3.49087093 5.62671065 5.64951939 6 11 C5.34 11 4.68 11 4 11 C3.32880451 9.5437455 2.66318193 8.08492133 2 6.625 C1.62875 5.81289063 1.2575 5.00078125 0.875 4.1640625 C0 2 0 2 0 0 Z " fill="#7187D3" transform="translate(678,656)"/>
<path d="M0 0 C0.66 0.33 1.32 0.66 2 1 C-0.31 4.3 -2.62 7.6 -5 11 C-6 9 -6 9 -5.3125 6.625 C-3.90601689 3.81203377 -2.32442123 2.0919791 0 0 Z " fill="#B5C2E9" transform="translate(854,485)"/>
<path d="M0 0 C2.95514876 2.75134539 5.1524809 5.39733775 7 9 C7 9.99 7 10.98 7 12 C5.821389 10.76125579 4.65747085 9.5085199 3.5 8.25 C2.8503125 7.55390625 2.200625 6.8578125 1.53125 6.140625 C0 4 0 4 0 0 Z " fill="#9AAADF" transform="translate(544,709)"/>
<path d="M0 0 C0.99 0 1.98 0 3 0 C1.83857315 4.35535069 0.92300495 6.64619703 -3 9 C-1.125 2.25 -1.125 2.25 0 0 Z " fill="#C1CDED" transform="translate(845,496)"/>
<path d="M0 0 C0.33 1.32 0.66 2.64 1 4 C0.01 4.33 -0.98 4.66 -2 5 C-2.144375 5.61875 -2.28875 6.2375 -2.4375 6.875 C-3.1872454 9.7073715 -4.59730651 10.44987517 -7 12 C-5.61735163 9.13132769 -4.07851447 6.43975968 -2.375 3.75 C-1.92898438 3.04359375 -1.48296875 2.3371875 -1.0234375 1.609375 C-0.68570312 1.07828125 -0.34796875 0.5471875 0 0 Z " fill="#B7C2E8" transform="translate(475,804)"/>
<path d="M0 0 C0 3.47684256 -0.66401429 5.7936343 -2 9 C-4.125 10.875 -4.125 10.875 -6 12 C-4.68139111 7.38486888 -2.78644563 3.90102388 0 0 Z " fill="#C8D1EE" transform="translate(494,774)"/>
<path d="M0 0 C0.6875 1.6875 0.6875 1.6875 1 4 C-0.25 6.6875 -0.25 6.6875 -2 9 C-2.99 9.33 -3.98 9.66 -5 10 C-4.34 7.69 -3.68 5.38 -3 3 C-2.34 3 -1.68 3 -1 3 C-0.67 2.01 -0.34 1.02 0 0 Z " fill="#D3DBF2" transform="translate(524,728)"/>
<path d="M0 0 C0 3.10551666 -0.5393715 4.35261084 -2 7 C-2.66 7 -3.32 7 -4 7 C-4.33 7.99 -4.66 8.98 -5 10 C-6 7 -6 7 -4.75 4.4375 C-3 2 -3 2 0 0 Z " fill="#C7D2F0" transform="translate(810,913)"/>
<path d="M0 0 C1.9375 1.125 1.9375 1.125 4 3 C4.75 6.1875 4.75 6.1875 5 9 C4.34 9 3.68 9 3 9 C0.56839395 5.63316085 0 4.26649636 0 0 Z " fill="#B9C5EA" transform="translate(604,799)"/>
<path d="M0 0 C2 1 2 1 2.8515625 3.06640625 C3.10679687 3.89011719 3.36203125 4.71382812 3.625 5.5625 C3.88539063 6.38878906 4.14578125 7.21507812 4.4140625 8.06640625 C4.60742188 8.70449219 4.80078125 9.34257813 5 10 C2 9 2 9 0 6 C-0.125 2.8125 -0.125 2.8125 0 0 Z " fill="#AFBCE6" transform="translate(591,778)"/>
<path d="M0 0 C0 4.38968456 -2.12805101 5.76905739 -5 9 C-6 6 -6 6 -4.75 3.375 C-3 1 -3 1 0 0 Z " fill="#CCD5F0" transform="translate(738,666)"/>
<path d="M0 0 C0.6875 1.75 0.6875 1.75 1 4 C-0.3125 6.25 -0.3125 6.25 -2 8 C-2.66 8 -3.32 8 -4 8 C-2.87548273 5.0280615 -1.77706209 2.66559313 0 0 Z " fill="#6A83D0" transform="translate(762,630)"/>
<path d="M0 0 C1 2 1 2 0.25 4.5 C-1 7 -1 7 -4 9 C-3.46930939 5.17902761 -2.50298434 2.93828597 0 0 Z " fill="#7189D4" transform="translate(810,555)"/>
<path d="M0 0 C0.66 0 1.32 0 2 0 C0.125 3.875 0.125 3.875 -1 5 C-2.99958364 5.04080783 -5.00045254 5.04254356 -7 5 C-6.34 4.34 -5.68 3.68 -5 3 C-3.68 3 -2.36 3 -1 3 C-0.67 2.01 -0.34 1.02 0 0 Z " fill="#DEE5F7" transform="translate(793,937)"/>
<path d="M0 0 C0 3.10551666 -0.5393715 4.35261084 -2 7 C-2.99 7 -3.98 7 -5 7 C-3.75023244 3.34683329 -3.32901247 2.21934164 0 0 Z " fill="#6886D5" transform="translate(829,887)"/>
<path d="M0 0 C0 3.17370278 -0.30933342 4.3794668 -2 7 C-4.125 8.25 -4.125 8.25 -6 9 C-4.47291037 5.56404834 -2.40072955 2.88087546 0 0 Z " fill="#A9B6E3" transform="translate(487,786)"/>
<path d="M0 0 C3.08089673 2.77280706 4.68775452 5.06326356 6 9 C3 8 3 8 1.3125 5.0625 C0 2 0 2 0 0 Z " fill="#D0D8F1" transform="translate(573,755)"/>
<path d="M0 0 C0.66 0.33 1.32 0.66 2 1 C-0.97 4.96 -0.97 4.96 -4 9 C-4.33 8.01 -4.66 7.02 -5 6 C-3.59554165 3.7363436 -1.8032087 1.9791315 0 0 Z " fill="#D9E0F5" transform="translate(822,533)"/>
<path d="M0 0 C0.6875 1.6875 0.6875 1.6875 1 4 C-0.375 6.75 -0.375 6.75 -2 9 C-2.33 9 -2.66 9 -3 9 C-3.26218749 5.85375007 -3.24754367 4.38162983 -1.5 1.6875 C-1.005 1.130625 -0.51 0.57375 0 0 Z " fill="#5976CD" transform="translate(849,495)"/>
<path d="M0 0 C0 3 0 3 -2 6 C-4.125 6.6875 -4.125 6.6875 -6 7 C-4.60667426 3.63279613 -3.0210714 2.0140476 0 0 Z " fill="#B5BFE5" transform="translate(452,481)"/>
<path d="M0 0 C2.4375 0.6875 2.4375 0.6875 5 2 C5.8125 4.625 5.8125 4.625 6 7 C5.34 7 4.68 7 4 7 C0 2.52941176 0 2.52941176 0 0 Z " fill="#7085D0" transform="translate(557,729)"/>
<path d="M0 0 C3 1 3 1 5 4 C4.625 6.1875 4.625 6.1875 4 8 C0 2.25 0 2.25 0 0 Z " fill="#8597D8" transform="translate(552,721)"/>
<path d="M0 0 C1.9375 0.625 1.9375 0.625 4 2 C4.75 5.125 4.75 5.125 5 8 C2.27573689 5.64722731 1.1858237 3.37503669 0 0 Z " fill="#B3BFE8" transform="translate(673,648)"/>
</svg>
